<?xml version="1.0" encoding="UTF-8" standalone="no"?>
<svg
   xmlns:dc="http://purl.org/dc/elements/1.1/"
   xmlns:cc="http://creativecommons.org/ns#"
   xmlns:rdf="http://www.w3.org/1999/02/22-rdf-syntax-ns#"
   xmlns:svg="http://www.w3.org/2000/svg"
   xmlns="http://www.w3.org/2000/svg"
   xmlns:sodipodi="http://sodipodi.sourceforge.net/DTD/sodipodi-0.dtd"
   xmlns:inkscape="http://www.inkscape.org/namespaces/inkscape"
   id="svg2932"
   viewBox="0 0 410 410"
   version="1.1"
   inkscape:version="0.92.4 (unknown)"
   sodipodi:docname="openlp-docs-icon.svg"
   inkscape:export-filename="/home/rsnyman/Personal/OpenLP/gitlab/documentation/openlp-docs-icon.png"
   inkscape:export-xdpi="96"
   inkscape:export-ydpi="96"
   width="410"
   height="410">
  <defs
     id="defs18">
    <linearGradient
       id="rect4108_1_"
       gradientUnits="userSpaceOnUse"
       x1="472.42209"
       y1="595.45251"
       x2="58.062099"
       y2="524.92249"
       gradientTransform="matrix(0.96923727,0,0,0.96897412,28.933406,-281.34151)">
      <stop
         offset="0"
         style="stop-color:#1E468C"
         id="stop3410" />
      <stop
         offset="1"
         style="stop-color:#507FDA"
         id="stop3412" />
    </linearGradient>
    <linearGradient
       id="rect4108_1_-3"
       gradientUnits="userSpaceOnUse"
       x1="472.42209"
       y1="595.45251"
       x2="58.062099"
       y2="524.92249"
       gradientTransform="matrix(0.96923727,0,0,0.96897412,28.933406,-281.34151)">
      <stop
         offset="0"
         style="stop-color:#1E468C"
         id="stop3410-6" />
      <stop
         offset="1"
         style="stop-color:#507FDA"
         id="stop3412-7" />
    </linearGradient>
  </defs>
  <sodipodi:namedview
     pagecolor="#ffffff"
     bordercolor="#666666"
     borderopacity="1"
     objecttolerance="10"
     gridtolerance="10"
     guidetolerance="10"
     inkscape:pageopacity="0"
     inkscape:pageshadow="2"
     inkscape:window-width="1920"
     inkscape:window-height="1019"
     id="namedview16"
     showgrid="false"
     inkscape:zoom="1.1504296"
     inkscape:cx="221.67615"
     inkscape:cy="215.98605"
     inkscape:window-x="1920"
     inkscape:window-y="0"
     inkscape:window-maximized="1"
     inkscape:current-layer="svg2932"
     fit-margin-top="0"
     fit-margin-left="0"
     fit-margin-right="0"
     fit-margin-bottom="0" />
  <metadata
     id="metadata14">
    <rdf:RDF>
      <cc:Work>
        <dc:format>image/svg+xml</dc:format>
        <dc:type
           rdf:resource="http://purl.org/dc/dcmitype/StillImage" />
        <cc:license
           rdf:resource="http://creativecommons.org/publicdomain/zero/1.0/" />
        <dc:publisher>
          <cc:Agent
             rdf:about="http://openclipart.org/">
            <dc:title>Openclipart</dc:title>
          </cc:Agent>
        </dc:publisher>
        <dc:title></dc:title>
        <dc:date>2013-10-12T15:15:12</dc:date>
        <dc:description>book pack</dc:description>
        <dc:source>https://openclipart.org/detail/184800/books-by-crisg-184800</dc:source>
        <dc:creator>
          <cc:Agent>
            <dc:title>crisg</dc:title>
          </cc:Agent>
        </dc:creator>
        <dc:subject>
          <rdf:Bag>
            <rdf:li>book</rdf:li>
            <rdf:li>book folder</rdf:li>
            <rdf:li>book library</rdf:li>
            <rdf:li>book pack</rdf:li>
            <rdf:li>icon</rdf:li>
            <rdf:li>library</rdf:li>
            <rdf:li>libreria</rdf:li>
            <rdf:li>libri</rdf:li>
            <rdf:li>my books</rdf:li>
          </rdf:Bag>
        </dc:subject>
      </cc:Work>
      <cc:License
         rdf:about="http://creativecommons.org/publicdomain/zero/1.0/">
        <cc:permits
           rdf:resource="http://creativecommons.org/ns#Reproduction" />
        <cc:permits
           rdf:resource="http://creativecommons.org/ns#Distribution" />
        <cc:permits
           rdf:resource="http://creativecommons.org/ns#DerivativeWorks" />
      </cc:License>
    </rdf:RDF>
  </metadata>
  <path
     style="fill:#1e468c;fill-opacity:1;stroke-width:7.54716921"
     inkscape:connector-curvature="0"
     d="M 54.056603,42.735849 V 367.26416 C 54.056603,389.90567 76.698113,405 91.792452,405 H 355.9434 V 4.9999992 H 91.792452 c -22.641509,0 -37.735849,15.0943398 -37.735849,37.7358498 z"
     id="path3978" />
  <path
     style="fill:#dddddd;stroke-width:7.54716921"
     inkscape:connector-curvature="0"
     d="m 69.150943,359.71698 c 0,15.09434 7.54717,30.18869 30.188679,30.18869 H 340.84906 V 329.5283 H 99.339622 c -22.641509,0 -30.188679,15.09435 -30.188679,30.18868 z"
     id="path3980" />
  <path
     style="fill:#9bb6ea;fill-opacity:1;stroke-width:7.54716921"
     inkscape:connector-curvature="0"
     d="M 121.98113,329.5283 H 355.9434 V 4.9999992 H 121.98113 Z"
     id="path3982" />
  <g
     id="g3567"
     inkscape:export-filename="/home/raoul/Projects/OpenLP/OpenLP/new-branding/resources/images/openlp-splash-screen.png"
     inkscape:export-xdpi="73.526482"
     inkscape:export-ydpi="73.526482"
     transform="matrix(0.45139035,0,0,0.45139035,123.17589,51.505528)">
    <path
       inkscape:export-filename="/home/raoul/Projects/OpenLP/WebSite/new-brand/themes/openlp2v2/assets/images/logo.png"
       inkscape:export-ydpi="11.92"
       inkscape:export-xdpi="11.92"
       id="rect4108"
       d="M 256.50947,30 A 226.51075,226.44925 0 0 0 30,256.44798 226.51075,226.44925 0 0 0 256.50947,482.89808 226.51075,226.44925 0 0 0 483.02107,256.44798 226.51075,226.44925 0 0 0 256.50947,30 Z"
       style="fill:url(#rect4108_1_-3)"
       inkscape:connector-curvature="0" />
    <path
       inkscape:export-filename="/home/raoul/Projects/OpenLP/WebSite/new-brand/themes/openlp2v2/assets/images/logo.png"
       inkscape:export-ydpi="11.92"
       inkscape:export-xdpi="11.92"
       style="fill:#ffffff"
       inkscape:connector-curvature="0"
       d="m 256.51033,46.633891 c -115.94546,0 -209.871922,94.007299 -209.871922,209.814939 0,115.80763 93.926462,209.81494 209.871922,209.81494 115.94546,0 209.87192,-94.00731 209.87192,-209.81494 0,-115.80764 -93.92646,-209.814939 -209.87192,-209.814939 z m -0.63823,17.546612 c 106.15923,0 192.32054,86.137907 192.32054,192.268327 0,15.73878 -1.9147,31.37121 -5.74409,46.57828 L 308.31348,195.51423 169.92354,84.492035 C 196.6229,71.092804 225.98157,64.180503 255.8721,64.180503 Z M 121.20517,119.26623 289.91113,219.54777 426.49275,300.7939 289.2729,233.15969 102.27095,140.85388 c 5.74409,-7.6567 12.12641,-14.88804 18.93422,-21.58765 z M 74.295122,192.962 276.93375,260.38352 416.8129,306.9618 276.93375,272.29395 66.955456,220.39852 c 1.701951,-9.3582 4.148507,-18.5037 7.339666,-27.43652 z m -9.467106,86.3506 206.361644,22.11936 144.6659,15.52609 -149.13352,-4.25372 -196.469053,-5.63619 C 67.806432,298.02898 65.998108,288.67079 64.828016,279.3126 Z M 421.59964,325.99722 263.42451,355.24157 111.31257,383.42249 C 105.143,376.40385 99.39891,368.85349 94.293055,360.9841 L 267.9985,342.4804 Z m 11.91366,4.46641 c -40.84684,98.04833 -153.49476,144.52027 -251.56973,103.57818 -8.50976,-3.50933 -16.80677,-7.76305 -24.6783,-12.44215 l 114.34988,-37.7518 z"
       class="st1"
       id="path6317" />
  </g>
</svg>
